Coordinates
version=1
nRows=31
nColumns=33
inDegrees=yes

Units are S.I. units (second, meters, Newtons, ...)
Angles are in degrees.

endheader
time	ground_thorax_rot_x	ground_thorax_rot_y	ground_thorax_rot_z	ground_thorax_tx	ground_thorax_ty	ground_thorax_tz	clav_prot_r	clav_elev_r	scapula_abduction_r	scapula_elevation_r	scapula_upward_rot_r	scapula_winging_r	shoulder_elv_r	plane_of_elev_r	axial_rot_r	elbow_flexion_r	pro_sup_r	wrist_flex_r	wrist_dev_r	clav_prot_l	clav_elev_l	scapula_abduction_l	scapula_elevation_l	scapula_upward_rot_l	scapula_winging_l	shoulder_elv_l	plane_of_elev_l	axial_rot_l	elbow_flexion_l	pro_sup_l	wrist_flex_l	wrist_dev_l	
7.6500	-27.188638	-30.783771	42.841461	-61.318423	771.500922	11.600092	9.187706	-45.000000	38.347644	-45.000000	-45.000000	-2975.782658	-2814.301530	28.723260	49.422987	367.204243	32.561826	17.441070	14.633068	15.689271	38.018014	-33.863691	-45.000000	-44.999997	436.860597	-4063.356026	137.495171	180.000000	364.020624	34.368379	11.499149	-18.462910	
7.6600	-27.236715	-30.734993	42.725651	-61.467173	771.763078	11.786244	9.165308	-45.000000	38.363441	-45.000000	-45.000000	-2975.767376	-2814.236605	28.750835	49.819453	367.347276	32.654379	17.538746	14.575185	15.631107	38.033517	-33.923740	-45.000000	-44.999995	436.897687	-4063.377439	137.435886	180.000000	364.051817	34.612301	11.376309	-18.577445	
7.6700	-27.319233	-30.684770	42.589619	-61.681613	772.020620	11.947701	9.169811	-45.000000	38.335946	-45.000000	-45.000000	-2975.719206	-2814.166058	28.765158	50.224883	367.485211	32.728053	17.680690	14.549212	15.526948	38.071860	-33.999440	-45.000000	-44.999991	436.958419	-4063.363257	137.377862	180.000000	364.090903	34.827161	11.223807	-18.731614	
7.6800	-27.390751	-30.644444	42.473613	-62.038030	772.271866	12.057485	9.159466	-45.000000	38.329035	-45.000000	-45.000000	-2975.716831	-2814.101550	28.796989	50.568098	367.615150	32.748315	17.757642	14.490553	15.477454	38.082548	-34.073692	-45.000000	-44.999984	437.043933	-4063.347200	137.322616	180.000000	364.148102	35.014094	11.119467	-18.847775	
7.6900	-27.468462	-30.609143	42.358840	-62.547365	772.517655	12.112292	9.144019	-45.000000	38.333129	-45.000000	-45.000000	-2975.737252	-2814.035829	28.837272	50.863881	367.744979	32.712595	17.803500	14.413437	15.454972	38.090222	-34.152856	-45.000000	-44.999971	437.153016	-4063.314622	137.274073	180.000000	364.216555	35.150117	11.038628	-18.950181	
7.7000	-27.557538	-30.572861	42.238170	-63.231249	772.762113	12.106619	9.134135	-45.000000	38.332137	-45.000000	-45.000000	-2975.770743	-2813.957199	28.885899	51.107176	367.871005	32.612103	17.829416	14.328794	15.449721	38.104777	-34.238810	-45.000000	-44.999947	437.287504	-4063.257369	137.232265	180.000000	364.304957	35.211287	10.974414	-19.047021	
7.7100	-27.659154	-30.531467	42.103609	-64.094081	773.013940	12.042746	9.123417	-45.000000	38.341648	-45.000000	-44.999999	-2975.818245	-2813.864777	28.943816	51.293475	367.998796	32.444082	17.835803	14.229782	15.465720	38.134035	-34.330649	-45.000000	-44.999905	437.439779	-4063.176720	137.199203	180.000000	364.406049	35.179452	10.923936	-19.136079	
7.7200	-27.783138	-30.472702	41.936050	-65.133233	773.286792	11.927293	9.123972	-45.000000	38.345932	-45.000000	-44.999999	-2975.865599	-2813.743503	29.012487	51.420255	368.132949	32.209819	17.846184	14.134005	15.481763	38.180591	-34.436070	-45.000000	-44.999831	437.615262	-4063.074212	137.165242	180.000000	364.526794	35.035496	10.873261	-19.231863	
7.7300	-27.925406	-30.395911	41.733182	-66.347079	773.598470	11.767897	9.123423	-45.000000	38.364508	-45.000000	-44.999998	-2975.920880	-2813.598663	29.096853	51.469654	368.273580	31.911853	17.846727	14.028541	15.513470	38.241007	-34.552608	-45.000000	-44.999696	437.807360	-4062.955113	137.131751	180.000000	364.661862	34.775429	10.828024	-19.321322	
7.7400	-28.092651	-30.295598	41.484948	-67.735074	773.969497	11.572425	9.130162	-45.000000	38.383801	-45.000000	-44.999997	-2975.974634	-2813.423529	29.198383	51.436582	368.419701	31.556794	17.850809	13.925949	15.547598	38.310975	-34.686372	-45.000000	-44.999460	438.021980	-4062.816676	137.093186	180.000000	364.817580	34.397541	10.778904	-19.412180	
7.7500	-28.284543	-30.171346	41.187396	-69.297506	774.421440	11.348333	9.134423	-45.000000	38.422283	-45.000000	-44.999994	-2976.034044	-2813.223782	29.318370	51.317853	368.580548	31.153617	17.853634	13.817134	15.591276	38.382881	-34.839025	-45.000000	-44.999021	438.257748	-4062.663993	137.048541	180.000000	364.986180	33.911032	10.726290	-19.497630	
7.7600	-28.504407	-30.018815	40.833566	-71.035763	774.975739	11.102300	9.139465	-45.000000	38.474040	-45.000000	-44.999990	-2976.097611	-2812.995344	29.459681	51.118452	368.760967	30.713995	17.862118	13.704966	15.637425	38.449527	-35.016550	-45.000000	-44.998278	438.518706	-4062.498368	136.993293	180.000000	365.170181	33.327464	10.664743	-19.580675	
7.7700	-28.748373	-29.843051	40.429646	-72.952285	775.652217	10.840078	9.141377	-45.000000	38.542359	-45.000000	-44.999982	-2976.164866	-2812.742441	29.617656	50.848430	368.960828	30.250344	17.874184	13.585087	15.691593	38.517413	-35.212140	-45.000000	-44.996825	438.796027	-4062.313184	136.935617	180.000000	365.365940	32.661774	10.590596	-19.656964	
7.7800	-29.013357	-29.646999	39.982394	-75.050441	776.467991	10.566362	9.143252	-45.000000	38.622032	-45.000000	-44.999967	-2976.237305	-2812.466323	29.791246	50.528049	369.176967	29.775078	17.891472	13.458168	15.752759	38.579203	-35.423556	-45.000000	-44.994564	439.088880	-4062.105664	136.876836	180.000000	365.573018	31.928468	10.499624	-19.725611	
7.7900	-29.310579	-29.419622	39.476644	-77.334585	777.436397	10.285065	9.147268	-45.000000	38.696104	-45.000000	-44.999942	-2976.308952	-2812.168703	29.984317	50.172548	369.404478	29.298300	17.911918	13.312939	15.811126	38.662750	-35.655236	-45.000000	-44.989562	439.391203	-4061.870348	136.818378	180.000000	365.795695	31.151595	10.391281	-19.789501	
7.8000	-29.631503	-29.167667	38.924768	-79.809453	778.566438	9.999012	9.150755	-45.000000	38.776493	-45.000000	-44.999896	-2976.391608	-2811.851244	30.194713	49.803082	369.650749	28.826845	17.937945	13.151786	15.871382	38.729933	-35.907281	-45.000000	-44.983259	439.714688	-4061.617468	136.752315	180.000000	366.026024	30.347638	10.263278	-19.846038	
7.8100	-29.973112	-28.889690	38.327761	-82.479570	779.862437	9.709948	9.153689	-45.000000	38.858367	-45.000000	-44.999813	-2976.479597	-2811.509119	30.418301	49.429223	369.912455	28.362851	17.968480	12.969734	15.930835	38.802397	-36.172710	-45.000000	-44.974018	440.048801	-4061.342820	136.685357	180.000000	366.264346	29.534316	10.117280	-19.896200	
7.8200	-30.318774	-28.600041	37.714181	-85.347737	781.324203	9.417929	9.154713	-45.000000	38.956557	-45.000000	-44.999665	-2976.588731	-2811.146260	30.646689	49.063726	370.194174	27.905518	18.006109	12.774565	15.996897	38.833908	-36.442227	-45.000000	-44.961211	440.403894	-4061.058543	136.612144	180.000000	366.497678	28.715370	9.954680	-19.935905	
7.8300	-30.672482	-28.290700	37.076995	-88.414770	782.947126	9.121947	9.157907	-45.000000	39.049038	-45.000000	-44.999400	-2976.708371	-2810.760142	30.882629	48.696769	370.478893	27.451912	18.047090	12.558867	16.060084	38.865344	-36.709858	-45.000000	-44.937280	440.765132	-4060.758868	136.543606	180.000000	366.729900	27.898531	9.781820	-19.969059	
7.8400	-31.020397	-27.974109	36.439512	-91.678570	784.722675	8.819937	9.162264	-45.000000	39.153025	-45.000000	-44.998925	-2976.855852	-2810.360687	31.123460	48.330033	370.766937	27.000670	18.094700	12.334986	16.127998	38.844170	-36.968378	-45.000000	-44.897180	441.145381	-4060.463093	136.474524	180.000000	366.948161	27.072619	9.601647	-19.992145	
7.8500	-31.373374	-27.636011	35.784534	-95.134799	786.638599	8.510259	9.171537	-45.000000	39.247012	-45.000000	-44.998073	-2977.015316	-2809.949290	31.372148	47.949864	371.034600	26.553063	18.144824	12.096249	16.189359	38.825081	-37.213842	-45.000000	-44.817623	441.526871	-4060.165485	136.420501	180.000000	367.157245	26.233124	9.421275	-20.009889	
7.8600	-31.730852	-27.275507	35.113737	-98.776983	788.679615	8.192248	9.185195	-45.000000	39.339064	-45.000000	-44.996551	-2977.191448	-2809.534179	31.625975	47.553319	371.280452	26.112580	18.199892	11.849216	16.244699	38.797412	-37.444248	-45.000000	-44.687212	441.912080	-4059.875799	136.382070	180.000000	367.352281	25.370347	9.243677	-20.022821	
7.8700	-32.109304	-26.870729	34.397305	-102.598069	790.827913	7.867739	9.204327	-45.000000	39.407872	-45.000000	-44.993815	-2977.366589	-2809.112967	31.889188	47.124422	371.493701	25.683461	18.257431	11.584272	16.282324	38.816796	-37.665198	-45.000000	-44.491224	442.288531	-4059.587453	136.365193	180.000000	367.540698	24.490270	9.074504	-20.038438	
7.8800	-32.503879	-26.426958	33.638489	-106.589976	793.064265	7.540424	9.220235	-45.000000	39.471747	-45.000000	-44.988942	-2977.544182	-2808.688015	32.153634	46.679368	371.695115	25.271157	18.322290	11.308523	16.316274	38.857937	-37.872380	-45.000000	-44.218961	442.667794	-4059.315453	136.364404	180.000000	367.714422	23.595255	8.912855	-20.055485	
7.8900	-32.911294	-25.941736	32.839003	-110.743834	795.368975	7.215652	9.229938	-45.000000	39.527381	-45.000000	-44.980131	-2977.716636	-2808.256976	32.410715	46.232548	371.880768	24.880500	18.392627	11.020678	16.347241	38.939192	-38.061910	-45.000000	-43.879082	443.040989	-4059.051944	136.378066	180.000000	367.875390	22.694135	8.760576	-20.077288	
7.9000	-33.318090	-25.428830	32.023454	-115.048924	797.722835	6.899004	9.234602	-45.000000	39.582998	-45.000000	-44.964577	-2977.893819	-2807.827745	32.650060	45.803953	372.055509	24.512892	18.468305	10.724375	16.377149	39.036004	-38.236980	-45.000000	-43.516028	443.407411	-4058.794112	136.401335	180.000000	368.024163	21.789340	8.616233	-20.105066	
7.9100	-33.713661	-24.893125	31.200983	-119.493181	800.107766	6.595901	9.231751	-45.000000	39.644425	-45.000000	-44.936078	-2978.076056	-2807.397157	32.864710	45.415987	372.225429	24.171590	18.550138	10.428558	16.416802	39.141042	-38.388654	-45.000000	-43.163042	443.759387	-4058.529040	136.421233	180.000000	368.162381	20.885315	8.479712	-20.139336	
7.9200	-34.089553	-24.348203	30.395839	-124.062808	802.507080	6.310661	9.228928	-45.000000	39.708256	-45.000000	-44.886806	-2978.279554	-2806.985732	33.056598	45.077879	372.376179	23.861873	18.632144	10.129068	16.452862	39.216889	-38.538325	-45.000000	-42.857860	444.107744	-4058.271536	136.441171	180.000000	368.289423	19.980278	8.351596	-20.182285	
7.9300	-34.445102	-23.790296	29.605527	-128.743165	804.905397	6.046554	9.224770	-45.000000	39.774536	-45.000000	-44.793585	-2978.506510	-2806.599078	33.221758	44.805798	372.501239	23.597052	18.711837	9.827833	16.479254	39.263381	-38.686622	-45.000000	-42.603680	444.449211	-4058.021870	136.457381	180.000000	368.405708	19.077818	8.234263	-20.236249	
7.9400	-34.778388	-23.223950	28.837278	-133.519076	807.288199	5.805749	9.225203	-45.000000	39.840266	-45.000000	-44.640444	-2978.764614	-2806.250011	33.359096	44.593320	372.595453	23.394483	18.785534	9.519678	16.480007	39.271973	-38.845728	-45.000000	-42.407074	444.787467	-4057.792906	136.478739	180.000000	368.511328	18.182913	8.128450	-20.303612	
7.9500	-35.097636	-22.640787	28.064660	-138.375584	809.641590	5.589536	9.221451	-45.000000	39.909975	-45.000000	-44.423202	-2979.036729	-2805.927435	33.467323	44.450248	372.679374	23.284786	18.856714	9.209998	16.464420	39.271290	-38.993138	-45.000000	-42.234425	445.114272	-4057.579410	136.499213	180.000000	368.604179	17.314801	8.034782	-20.383795	
